Coordinates
version=1
nRows=13
nColumns=22
inDegrees=yes

Units are S.I. units (second, meters, Newtons, ...)
If the header above contains a line with 'inDegrees', this indicates whether rotational values are in degrees (yes) or radians (no).

endheader
time	pelvis_tilt	pelvis_list	pelvis_rotation	pelvis_tx	pelvis_ty	pelvis_tz	hip_flexion_r	hip_adduction_r	hip_rotation_r	knee_angle_r	ankle_angle_r	subtalar_angle_r	hip_flexion_l	hip_adduction_l	hip_rotation_l	knee_angle_l	ankle_angle_l	subtalar_angle_l	lumbar_extension	lumbar_bending	lumbar_rotation
      0.01000000	      4.10760167	     -3.83240858	      4.85132286	     -1.37129022	      0.95390386	     -0.57818479	     -4.85945006	      5.80695457	    -10.42487691	     -5.86157685	      7.85637661	     -0.93852453	     -1.40162551	     -4.64971842	    -12.36124029	    -15.49596720	     20.46025793	     -6.73254996	    -10.53732067	      5.34996024	     -8.61776223
      0.02000000	      4.13967731	     -3.85787176	      4.85428961	     -1.37143039	      0.95395570	     -0.57820743	     -4.86605345	      5.83322061	    -10.45353277	     -5.89199830	      7.86660125	     -0.95000402	     -1.41090359	     -4.68191252	    -12.35676194	    -15.51822855	     20.45099911	     -6.73924275	    -10.57925918	      5.36779912	     -8.62001163
      0.03000000	      4.16880088	     -3.87868619	      4.84940941	     -1.37158396	      0.95400287	     -0.57822250	     -4.84866541	      5.84857893	    -10.52106433	     -5.96257521	      7.85199802	     -0.96038988	     -1.41047981	     -4.71460644	    -12.40736771	    -15.55263359	     20.48201381	     -6.72414617	    -10.61803782	      5.37447089	     -8.61401932
      0.04000000	      4.16105970	     -3.91647270	      4.85396280	     -1.37176214	      0.95397633	     -0.57825002	     -4.78644185	      5.87960723	    -10.59447272	     -6.03491061	      7.86516477	     -0.97450508	     -1.34107262	     -4.77209283	    -12.47853018	    -15.63688453	     20.54724798	     -6.60468879	    -10.61176683	      5.39656622	     -8.61696592
      0.05000000	      4.18518361	     -3.93752522	      4.85223537	     -1.37193931	      0.95402160	     -0.57830239	     -4.76183360	      5.89377365	    -10.61405494	     -6.10702727	      7.84598513	     -0.97577857	     -1.33632611	     -4.79813744	    -12.48875831	    -15.66734449	     20.54884558	     -6.59071913	    -10.64754324	      5.40257090	     -8.61036250
      0.06000000	      4.20888215	     -3.95467917	      4.85904544	     -1.37209753	      0.95405730	     -0.57840761	     -4.74228392	      5.90252516	    -10.63921318	     -6.17093057	      7.83484279	     -0.97543946	     -1.32809754	     -4.81952809	    -12.50574365	    -15.70707053	     20.56661338	     -6.56878547	    -10.68046889	      5.40984648	     -8.61695695
      0.07000000	      4.23205096	     -3.96105548	      4.88345461	     -1.37219408	      0.95408098	     -0.57861647	     -4.74033989	      5.89931309	    -10.65148686	     -6.21154412	      7.83962758	     -0.97329531	     -1.32318681	     -4.82326888	    -12.50698106	    -15.74634037	     20.59252693	     -6.53237144	    -10.69852947	      5.41825483	     -8.63660943
      0.08000000	      4.25523735	     -3.95159761	      4.91827777	     -1.37229074	      0.95410381	     -0.57889122	     -4.74470098	      5.87968732	    -10.60640806	     -6.24560199	      7.84148143	     -0.97313564	     -1.32764595	     -4.80251651	    -12.48423126	    -15.76502803	     20.59984179	     -6.52013156	    -10.72215252	      5.41161213	     -8.66959564
      0.09000000	      4.30489776	     -3.89979463	      4.97183393	     -1.37228672	      0.95416814	     -0.57929303	     -4.82726684	      5.82016031	    -10.51162327	     -6.20670042	      7.88355017	     -0.97499199	     -1.39407549	     -4.71987436	    -12.39574738	    -15.73361295	     20.59066916	     -6.50500184	    -10.75961188	      5.37423479	     -8.73318810
      0.10000000	      4.41643422	     -3.83570143	      5.00770869	     -1.37224806	      0.95434242	     -0.57971849	     -4.97591877	      5.74771732	    -10.39550702	     -6.17911772	      7.89905009	     -0.98899106	     -1.56872194	     -4.61625937	    -12.30707909	    -15.63461885	     20.52525207	     -6.55732521	    -10.87336107	      5.33369350	     -8.77597039
      0.11000000	      4.45219069	     -3.77714625	      5.05172471	     -1.37222117	      0.95437795	     -0.58013040	     -5.05238541	      5.67858400	    -10.27854095	     -6.12789880	      7.92602458	     -0.99277909	     -1.61825650	     -4.52623376	    -12.24854812	    -15.61515537	     20.52398000	     -6.58557436	    -10.89369481	      5.28810568	     -8.82954692
      0.12000000	      4.54331931	     -3.72363459	      5.06947844	     -1.37218889	      0.95451955	     -0.58048251	     -5.18266696	      5.61681079	    -10.16896073	     -6.08862308	      7.93416912	     -1.00783551	     -1.76692092	     -4.43645847	    -12.17845542	    -15.52589329	     20.46855288	     -6.68462955	    -10.98554759	      5.25036922	     -8.85318311
      0.13000000	      4.55532014	     -3.69508021	      5.08825864	     -1.37221554	      0.95451717	     -0.58075696	     -5.21035255	      5.57638737	    -10.11436930	     -6.06658249	      7.93830142	     -1.00846788	     -1.77070977	     -4.38976703	    -12.16629212	    -15.54136632	     20.47805539	     -6.69454727	    -10.98776557	      5.22349283	     -8.88459664
